<svg width="300" height="500" viewBox="0 0 300 500" fill="none" xmlns="http://www.w3.org/2000/svg">
<path d="M166 257.001C166 252.368 162.5 248.557 158 248.059V239.584L152.414 234H134V266H158V265.941C162.5 265.443 166 261.633 166 257.001ZM151.998 236.413L155.586 240H151.998V236.413V236.413ZM136 264V235.998H150V241.999H156V248.059C155.137 248.154 154.312 248.37 153.539 248.692C152.956 248.013 152 248 152 248H150L148 246H144L142 248H140C140 248 138 248 138 250V256C138 258 140 258 140 258C140 258 144.531 258 148.058 258C148.325 260.42 149.551 262.548 151.348 264H136ZM146 256C144.342 256 143 254.658 143 253C143 251.344 144.342 250 146 250C147.624 250 148.94 251.295 148.991 252.907C148.658 253.558 148.402 254.254 148.235 254.984C147.685 255.603 146.892 256 146 256ZM157 264C153.135 263.992 150.005 260.865 150 257.001C150.006 253.136 153.135 250.006 157 250C160.864 250.006 163.991 253.136 163.999 257.001C163.991 260.865 160.864 263.992 157 264Z" fill="#2F2F2F"/>
<path d="M162 256H158.002V252H156V256H152V258H156V262H158.002V258H162V256Z" fill="#2F2F2F"/>
</svg>
